# xmcd CD database file
#
# Track frame offsets:
#	150
#	29737
#	59416
#	87830
#	111615
#	131338
#	157146
#	173816
#	190946
#	207570
#	224441
#
# Disc length: 3406 seconds
#
# Revision: 0
# Processed by: cddbd v1.5.2PL0 Copyright (c) Steve Scherf et al.
# Submitted via: CDex 1.70beta2
#
DISCID=ac0d4c0b
DTITLE=Rick Wakeman - Aspirant Sunrise
DYEAR=1990
DGENRE=New Age
TTITLE0=Thoughts of Love
TTITLE1=Gentle Breeze
TTITLE2=Whispering Cornfields
TTITLE3=Peaceful Beginnings
TTITLE4=Dewy Morn
TTITLE5=Musical Dreams
TTITLE6=Distant Thoughts
TTITLE7=The Dove
TTITLE8=When Time Stood Still
TTITLE9=Secret Moments
TTITLE10=Peaceful
EXTD=YEAR: 1990
EXTT0=
EXTT1=
EXTT2=
EXTT3=
EXTT4=
EXTT5=
EXTT6=
EXTT7=
EXTT8=
EXTT9=
EXTT10=
PLAYORDER=
